<svg width="52" height="53" viewBox="0 0 52 53" fill="none" xmlns="http://www.w3.org/2000/svg">
<rect y="0.5" width="52" height="52" rx="26" fill="#141414"/>
<path d="M34.4701 16.4999H17.5301C17.3396 16.4973 17.1506 16.5321 16.9736 16.6026C16.7967 16.673 16.6354 16.7776 16.4989 16.9104C16.3624 17.0432 16.2533 17.2016 16.1781 17.3765C16.1028 17.5514 16.0627 17.7395 16.0601 17.9299V35.0699C16.0627 35.2603 16.1028 35.4484 16.1781 35.6233C16.2533 35.7982 16.3624 35.9566 16.4989 36.0894C16.6354 36.2222 16.7967 36.3268 16.9736 36.3972C17.1506 36.4676 17.3396 36.5025 17.5301 36.4999H34.4701C34.6605 36.5025 34.8496 36.4676 35.0265 36.3972C35.2034 36.3268 35.3648 36.2222 35.5013 36.0894C35.6378 35.9566 35.7468 35.7982 35.8221 35.6233C35.8974 35.4484 35.9375 35.2603 35.9401 35.0699V17.9299C35.9375 17.7395 35.8974 17.5514 35.8221 17.3765C35.7468 17.2016 35.6378 17.0432 35.5013 16.9104C35.3648 16.7776 35.2034 16.673 35.0265 16.6026C34.8496 16.5321 34.6605 16.4973 34.4701 16.4999ZM22.0901 33.2399H19.0901V24.2399H22.0901V33.2399ZM20.5901 22.9799C20.1763 22.9799 19.7795 22.8155 19.487 22.523C19.1944 22.2304 19.0301 21.8336 19.0301 21.4199C19.0301 21.0062 19.1944 20.6094 19.487 20.3168C19.7795 20.0243 20.1763 19.8599 20.5901 19.8599C20.8098 19.835 21.0322 19.8567 21.2429 19.9238C21.4536 19.9908 21.6478 20.1016 21.8127 20.2489C21.9776 20.3961 22.1096 20.5766 22.1999 20.7784C22.2903 20.9802 22.337 21.1988 22.337 21.4199C22.337 21.641 22.2903 21.8596 22.1999 22.0614C22.1096 22.2632 21.9776 22.4437 21.8127 22.5909C21.6478 22.7382 21.4536 22.849 21.2429 22.916C21.0322 22.983 20.8098 23.0048 20.5901 22.9799ZM32.9101 33.2399H29.9101V28.4099C29.9101 27.1999 29.4801 26.4099 28.3901 26.4099C28.0527 26.4124 27.7242 26.5182 27.4489 26.7131C27.1735 26.908 26.9645 27.1826 26.8501 27.4999C26.7718 27.7349 26.7379 27.9825 26.7501 28.2299V33.2299H23.7501C23.7501 33.2299 23.7501 25.0499 23.7501 24.2299H26.7501V25.4999C27.0226 25.027 27.419 24.6374 27.8965 24.3731C28.374 24.1088 28.9146 23.9797 29.4601 23.9999C31.4601 23.9999 32.9101 25.2899 32.9101 28.0599V33.2399Z" fill="white"/>
</svg>
