<svg width="52" height="53" viewBox="0 0 52 53" fill="none" xmlns="http://www.w3.org/2000/svg">
<rect y="0.5" width="52" height="52" rx="26" fill="#141414"/>
<path d="M36 20.3C35.2483 20.6261 34.4534 20.8416 33.64 20.94C34.4982 20.4273 35.1413 19.6207 35.45 18.67C34.6436 19.15 33.7608 19.4883 32.84 19.67C32.2245 19.0025 31.405 18.5583 30.5098 18.4068C29.6147 18.2554 28.6945 18.4053 27.8938 18.8332C27.093 19.261 26.4569 19.9425 26.0852 20.7708C25.7135 21.5991 25.6273 22.5274 25.84 23.41C24.2094 23.3275 22.6144 22.9029 21.1587 22.1638C19.7029 21.4247 18.4188 20.3877 17.39 19.12C17.0291 19.7501 16.8395 20.4638 16.84 21.19C16.8387 21.8643 17.0042 22.5286 17.3218 23.1235C17.6393 23.7185 18.099 24.2257 18.66 24.6C18.008 24.5822 17.3699 24.4073 16.8 24.09V24.14C16.8049 25.0849 17.136 25.9991 17.7373 26.7279C18.3386 27.4568 19.1733 27.9556 20.1 28.14C19.7433 28.2485 19.3729 28.3058 19 28.31C18.7419 28.307 18.4844 28.2835 18.23 28.24C18.4939 29.0528 19.0046 29.7631 19.6911 30.2721C20.3775 30.7811 21.2056 31.0635 22.06 31.08C20.6172 32.2152 18.8359 32.8348 17 32.84C16.6657 32.8411 16.3317 32.821 16 32.78C17.8744 33.9902 20.0588 34.6327 22.29 34.63C23.8297 34.646 25.3571 34.355 26.7831 33.774C28.2091 33.1931 29.505 32.3338 30.5952 31.2465C31.6854 30.1591 32.548 28.8654 33.1326 27.4409C33.7172 26.0164 34.012 24.4897 34 22.95C34 22.78 34 22.6 34 22.42C34.7847 21.8348 35.4615 21.1174 36 20.3Z" fill="white"/>
</svg>
