<svg width="52" height="53" viewBox="0 0 52 53" fill="none" xmlns="http://www.w3.org/2000/svg">
<rect y="0.5" width="52" height="52" rx="26" fill="#141414"/>
<path d="M37 24.21C37.0495 22.7786 36.7365 21.358 36.09 20.08C35.6514 19.5556 35.0427 19.2017 34.37 19.08C31.5875 18.8275 28.7936 18.724 26 18.77C23.2167 18.7219 20.4327 18.8221 17.66 19.07C17.1118 19.1697 16.6045 19.4268 16.2 19.81C15.3 20.64 15.2 22.06 15.1 23.26C14.9549 25.4175 14.9549 27.5824 15.1 29.74C15.129 30.4154 15.2295 31.0858 15.4 31.74C15.5206 32.245 15.7645 32.7123 16.11 33.1C16.5173 33.5034 17.0364 33.7752 17.6 33.88C19.7559 34.1461 21.9282 34.2564 24.1 34.21C27.6 34.26 30.67 34.21 34.3 33.93C34.8775 33.8316 35.4112 33.5595 35.83 33.15C36.11 32.8699 36.3191 32.5271 36.44 32.15C36.7977 31.0526 36.9733 29.9041 36.96 28.75C37 28.19 37 24.81 37 24.21ZM23.74 29.35V23.16L29.66 26.27C28 27.19 25.81 28.23 23.74 29.35Z" fill="white"/>
</svg>
